<mxfile host="65bd71144e">
    <diagram id="AXbyCIUvoYPJ87ls1l9i" name="第 1 页">
        <mxGraphModel dx="492" dy="394" grid="1" gridSize="10" guides="1" tooltips="1" connect="1" arrows="1" fold="1" page="1" pageScale="1" pageWidth="827" pageHeight="1169" math="0" shadow="0">
            <root>
                <mxCell id="0"/>
                <mxCell id="1" parent="0"/>
                <mxCell id="3" value="" style="rounded=1;whiteSpace=wrap;html=1;" vertex="1" parent="1">
                    <mxGeometry x="897" y="90" width="380" height="210" as="geometry"/>
                </mxCell>
                <mxCell id="5" value="" style="whiteSpace=wrap;html=1;" vertex="1" parent="1">
                    <mxGeometry x="20" y="80" width="490" height="280" as="geometry"/>
                </mxCell>
                <mxCell id="4" value="外层组件，提供table实例信息（包含了可用于计算子元素（坐标等）的各种信息，）&lt;br&gt;通过自定义Hook的到要渲染的表格内部元素（文字 表格 线 活跃表格等等）" style="text;html=1;align=left;verticalAlign=middle;resizable=0;points=[];autosize=1;strokeColor=none;fillColor=none;" vertex="1" parent="1">
                    <mxGeometry x="40" y="100" width="470" height="40" as="geometry"/>
                </mxCell>
                <mxCell id="6" value="表格内部元素拿到各自的{x, y}信息进行渲染" style="rounded=0;whiteSpace=wrap;html=1;" vertex="1" parent="1">
                    <mxGeometry x="310" y="185" width="160" height="140" as="geometry"/>
                </mxCell>
                <mxCell id="7" value="&lt;div style=&quot;background-color: rgb(255, 255, 255); font-family: JetBrainsMono-Regular, &amp;quot;Cascadia Code&amp;quot;, Menlo, Monaco, &amp;quot;Courier New&amp;quot;, monospace, Menlo, Monaco, &amp;quot;Courier New&amp;quot;, monospace; line-height: 18px;&quot;&gt;&lt;div&gt; &lt;span style=&quot;color: #800000;&quot;&gt;&amp;lt;&lt;/span&gt;&lt;span style=&quot;color: #267f99;&quot;&gt;Group&lt;/span&gt; &lt;span style=&quot;color: #e50000;&quot;&gt;offsetY&lt;/span&gt;=&lt;span style=&quot;color: #0000ff;&quot;&gt;{&lt;/span&gt;&lt;span style=&quot;color: #001080;&quot;&gt;scrollTop&lt;/span&gt;&lt;span style=&quot;color: #0000ff;&quot;&gt;}&lt;/span&gt;&lt;span style=&quot;color: #800000;&quot;&gt;&amp;gt;&lt;/span&gt;&lt;/div&gt;&lt;/div&gt;&lt;blockquote style=&quot;margin: 0 0 0 40px; border: none; padding: 0px;&quot;&gt;&lt;div style=&quot;background-color: rgb(255, 255, 255); font-family: JetBrainsMono-Regular, &amp;quot;Cascadia Code&amp;quot;, Menlo, Monaco, &amp;quot;Courier New&amp;quot;, monospace, Menlo, Monaco, &amp;quot;Courier New&amp;quot;, monospace; line-height: 18px;&quot;&gt;&lt;div&gt;&lt;span style=&quot;color: #0000ff;&quot;&gt;{&lt;/span&gt;&lt;span style=&quot;color: #001080;&quot;&gt;frozenCells&lt;/span&gt;&lt;span style=&quot;color: #0000ff;&quot;&gt;}&lt;/span&gt;&lt;/div&gt;&lt;/div&gt;&lt;div style=&quot;background-color: rgb(255, 255, 255); font-family: JetBrainsMono-Regular, &amp;quot;Cascadia Code&amp;quot;, Menlo, Monaco, &amp;quot;Courier New&amp;quot;, monospace, Menlo, Monaco, &amp;quot;Courier New&amp;quot;, monospace; line-height: 18px;&quot;&gt;&lt;div&gt;&lt;span style=&quot;color: #0000ff;&quot;&gt;{&lt;/span&gt;&lt;span style=&quot;color: #001080;&quot;&gt;otherRows&lt;/span&gt;&lt;span style=&quot;color: #0000ff;&quot;&gt;}&lt;/span&gt;&lt;/div&gt;&lt;/div&gt;&lt;div style=&quot;background-color: rgb(255, 255, 255); font-family: JetBrainsMono-Regular, &amp;quot;Cascadia Code&amp;quot;, Menlo, Monaco, &amp;quot;Courier New&amp;quot;, monospace, Menlo, Monaco, &amp;quot;Courier New&amp;quot;, monospace; line-height: 18px;&quot;&gt;&lt;div&gt;&lt;span style=&quot;color: #0000ff;&quot;&gt;{&lt;/span&gt;&lt;span style=&quot;color: #001080;&quot;&gt;hoverRowHeadOperation&lt;/span&gt;&lt;span style=&quot;color: #0000ff;&quot;&gt;}&lt;/span&gt;&lt;/div&gt;&lt;/div&gt;&lt;div style=&quot;background-color: rgb(255, 255, 255); font-family: JetBrainsMono-Regular, &amp;quot;Cascadia Code&amp;quot;, Menlo, Monaco, &amp;quot;Courier New&amp;quot;, monospace, Menlo, Monaco, &amp;quot;Courier New&amp;quot;, monospace; line-height: 18px;&quot;&gt;&lt;div&gt;&lt;span style=&quot;color: #0000ff;&quot;&gt;{&lt;/span&gt;&lt;span style=&quot;color: #001080;&quot;&gt;frozenGroupStats&lt;/span&gt;&lt;span style=&quot;color: #0000ff;&quot;&gt;}&lt;/span&gt;&lt;/div&gt;&lt;/div&gt;&lt;div style=&quot;background-color: rgb(255, 255, 255); font-family: JetBrainsMono-Regular, &amp;quot;Cascadia Code&amp;quot;, Menlo, Monaco, &amp;quot;Courier New&amp;quot;, monospace, Menlo, Monaco, &amp;quot;Courier New&amp;quot;, monospace; line-height: 18px;&quot;&gt;&lt;div&gt;&lt;span style=&quot;color: #0000ff;&quot;&gt;{&lt;/span&gt;&lt;span style=&quot;color: #001080;&quot;&gt;frozenPlaceHolderCells&lt;/span&gt;&lt;span style=&quot;color: #0000ff;&quot;&gt;}&lt;/span&gt;&lt;/div&gt;&lt;/div&gt;&lt;div style=&quot;background-color: rgb(255, 255, 255); font-family: JetBrainsMono-Regular, &amp;quot;Cascadia Code&amp;quot;, Menlo, Monaco, &amp;quot;Courier New&amp;quot;, monospace, Menlo, Monaco, &amp;quot;Courier New&amp;quot;, monospace; line-height: 18px;&quot;&gt;&lt;div&gt;&lt;span style=&quot;color: #0000ff;&quot;&gt;{&lt;/span&gt;&lt;span style=&quot;color: #001080;&quot;&gt;frozenCollaboratorBorders&lt;/span&gt;&lt;span style=&quot;color: #0000ff;&quot;&gt;}&lt;/span&gt;&lt;/div&gt;&lt;/div&gt;&lt;div style=&quot;background-color: rgb(255, 255, 255); font-family: JetBrainsMono-Regular, &amp;quot;Cascadia Code&amp;quot;, Menlo, Monaco, &amp;quot;Courier New&amp;quot;, monospace, Menlo, Monaco, &amp;quot;Courier New&amp;quot;, monospace; line-height: 18px;&quot;&gt;&lt;div&gt;&lt;span style=&quot;color: #0000ff;&quot;&gt;{&lt;/span&gt;&lt;span style=&quot;color: #001080;&quot;&gt;frozenActivedCell&lt;/span&gt;&lt;span style=&quot;color: #0000ff;&quot;&gt;}&lt;/span&gt;&lt;/div&gt;&lt;/div&gt;&lt;div style=&quot;background-color: rgb(255, 255, 255); font-family: JetBrainsMono-Regular, &amp;quot;Cascadia Code&amp;quot;, Menlo, Monaco, &amp;quot;Courier New&amp;quot;, monospace, Menlo, Monaco, &amp;quot;Courier New&amp;quot;, monospace; line-height: 18px;&quot;&gt;&lt;div&gt;&lt;span style=&quot;color: #0000ff;&quot;&gt;{&lt;/span&gt;&lt;span style=&quot;color: #001080;&quot;&gt;frozenDateAlarms&lt;/span&gt;&lt;span style=&quot;color: #0000ff;&quot;&gt;}&lt;/span&gt;&lt;/div&gt;&lt;/div&gt;&lt;div style=&quot;background-color: rgb(255, 255, 255); font-family: JetBrainsMono-Regular, &amp;quot;Cascadia Code&amp;quot;, Menlo, Monaco, &amp;quot;Courier New&amp;quot;, monospace, Menlo, Monaco, &amp;quot;Courier New&amp;quot;, monospace; line-height: 18px;&quot;&gt;&lt;div&gt;&lt;span style=&quot;color: #0000ff;&quot;&gt;{&lt;/span&gt;&lt;span style=&quot;color: #001080;&quot;&gt;frozenDateAddAlarm&lt;/span&gt;&lt;span style=&quot;color: #0000ff;&quot;&gt;}&lt;/span&gt;&lt;/div&gt;&lt;/div&gt;&lt;/blockquote&gt;&lt;div style=&quot;background-color: rgb(255, 255, 255); font-family: JetBrainsMono-Regular, &amp;quot;Cascadia Code&amp;quot;, Menlo, Monaco, &amp;quot;Courier New&amp;quot;, monospace, Menlo, Monaco, &amp;quot;Courier New&amp;quot;, monospace; line-height: 18px;&quot;&gt;&lt;div&gt;            &lt;span style=&quot;color: #800000;&quot;&gt;&amp;lt;/&lt;/span&gt;&lt;span style=&quot;color: #267f99;&quot;&gt;Group&lt;/span&gt;&lt;span style=&quot;color: #800000;&quot;&gt;&amp;gt;&lt;/span&gt;&lt;/div&gt;&lt;/div&gt;" style="text;html=1;align=left;verticalAlign=middle;resizable=0;points=[];autosize=1;strokeColor=none;fillColor=none;" vertex="1" parent="1">
                    <mxGeometry x="40" y="150" width="260" height="210" as="geometry"/>
                </mxCell>
            </root>
        </mxGraphModel>
    </diagram>
</mxfile>